C:\Users\israe\Dropbox\PhDWork\ExperimentalData\subject7\145\P7S145W09_filtered35.mot
nRows=16
nColumns=28

name C:\Users\israe\Dropbox\PhDWork\ExperimentalData\subject7\145\P7S145W09_filtered35.mot
datacolumns 28
datarows 16
range 1.0350000000 1.0500000000
endheader
time	ground_force_1_vx	ground_force_1_vy	ground_force_1_vz	ground_force_1_px	ground_force_1_py	ground_force_1_pz	ground_moment_1_mx	ground_moment_1_my	ground_moment_1_mz	ground_force_2_vx	ground_force_2_vy	ground_force_2_vz	ground_force_2_px	ground_force_2_py	ground_force_2_pz	ground_moment_2_mx	ground_moment_2_my	ground_moment_2_mz	ground_force_3_vx	ground_force_3_vy	ground_force_3_vz	ground_force_3_px	ground_force_3_py	ground_force_3_pz	ground_moment_3_mx	ground_moment_3_my	ground_moment_3_mz
        1.0350000000	       39.5558839423	      644.3717118780	      157.2188418657	        0.1988394961	        0.0000558755	       -0.3004071324	       68.5232488856	      -26.9656772436	       78.2422034074	      -15.6932943284	      417.8497641528	     -132.1859637583	        0.2029003516	       -0.0000795827	        0.4543649445	       93.3044905108	        7.4801790562	       10.6282363499	       -0.0000000000	        0.0000000000	       -0.0000000000	        0.2076431971	        0.0000770316	        1.3583900146	       -0.0000000000	        0.0000000000	       -0.0000000000	
        1.0360000000	       39.0197366515	      652.9808424376	      157.5942815731	        0.1988394961	        0.0000558755	       -0.3004071324	       69.8270709528	      -27.0887535812	       79.3925328978	      -16.0606834985	      405.4936965008	     -129.3748888273	        0.2029003516	       -0.0000795827	        0.4543649445	       90.8975723473	        7.5232028571	       10.3318676204	       -0.0000000000	        0.0000000000	       -0.0000000000	        0.2076431971	        0.0000770316	        1.3583900146	       -0.0000000000	        0.0000000000	       -0.0000000000	
        1.0370000000	       38.5189789316	      661.0927470554	      158.3189227096	        0.1988394961	        0.0000558755	       -0.3004071324	       71.0765295947	      -27.2510973254	       80.4812240341	      -16.4619512016	      393.1191120735	     -126.3511052419	        0.2029003516	       -0.0000795827	        0.4543649445	       88.4835117822	        7.5632790896	       10.0387149033	       -0.0000000000	        0.0000000000	       -0.0000000000	        0.2076431971	        0.0000770316	        1.3583900146	       -0.0000000000	        0.0000000000	       -0.0000000000	
        1.0380000000	       38.0631256221	      668.5674041283	      159.2982017770	        0.1988394961	        0.0000558755	       -0.3004071324	       72.2544404928	      -27.4397085088	       81.4881420302	      -16.8976908679	      380.7697618395	     -123.1161053028	        0.2029003516	       -0.0000795827	        0.4543649445	       86.0697677808	        7.6012670311	        9.7497253678	       -0.0000000000	        0.0000000000	       -0.0000000000	        0.2076431971	        0.0000770316	        1.3583900146	       -0.0000000000	        0.0000000000	       -0.0000000000	
        1.0390000000	       37.6499730933	      675.2617115848	      160.4157252890	        0.1988394961	        0.0000558755	       -0.3004071324	       73.3436018302	      -27.6377946171	       82.3936899524	      -17.3654052911	      368.4901921768	     -119.6742339427	        0.2029003516	       -0.0000795827	        0.4543649445	       83.6638239849	        7.6375480772	        9.4653196136	       -0.0000000000	        0.0000000000	       -0.0000000000	        0.2076431971	        0.0000770316	        1.3583900146	       -0.0000000000	        0.0000000000	       -0.0000000000	
        1.0400000000	       37.2683172038	      681.0397073661	      161.5482147996	        0.1988394961	        0.0000558755	       -0.3004071324	       74.3280066303	      -27.8270284110	       83.1800064875	      -17.8604723522	      356.3220289710	     -116.0332816704	        0.2029003516	       -0.0000795827	        0.4543649445	       81.2736053994	        7.6720329083	        9.1855613460	       -0.0000000000	        0.0000000000	       -0.0000000000	        0.2076431971	        0.0000770316	        1.3583900146	       -0.0000000000	       -0.0000000000	       -0.0000000000	
        1.0410000000	       36.9009558650	      685.7848565920	      162.5787706835	        0.1988394961	        0.0000558755	       -0.3004071324	       75.1936555540	      -27.9895879720	       83.8322684726	      -18.3771254402	      344.3057595543	     -112.2048281869	        0.2029003516	       -0.0000795827	        0.4543649445	       78.9074187200	        7.7042466257	        8.9104569715	       -0.0000000000	        0.0000000000	       -0.0000000000	        0.2076431971	        0.0000770316	        1.3583900146	       -0.0000000000	       -0.0000000000	       -0.0000000000	
        1.0420000000	       36.5278942500	      689.4099134694	      163.4064351163	        0.1988394961	        0.0000558755	       -0.3004071324	       75.9295191794	      -28.1098167643	       84.3397008397	      -18.9084409820	      332.4826435639	     -108.2045490688	        0.2029003516	       -0.0000795827	        0.4543649445	       76.5734649518	        7.7334315688	        8.6401024590	       -0.0000000000	        0.0000000000	       -0.0000000000	        0.2076431971	        0.0000770316	        1.3583900146	       -0.0000000000	       -0.0000000000	       -0.0000000000	
        1.0430000000	       36.1294233763	      691.8625738132	      163.9512613566	        0.1988394961	        0.0000558755	       -0.3004071324	       76.5285041394	      -28.1752997090	       84.6962131426	      -19.4464513219	      320.8924116984	     -104.0527297291	        0.2029003516	       -0.0000795827	        0.4543649445	       74.2792932207	        7.7585834794	        8.3748281802	       -0.0000000000	        0.0000000000	       -0.0000000000	        0.2076431971	        0.0000770316	        1.3583900146	       -0.0000000000	       -0.0000000000	       -0.0000000000	
        1.0440000000	       35.6883928613	      693.1283017982	      164.1572928732	        0.1988394961	        0.0000558755	       -0.3004071324	       76.9878325079	      -28.1773490422	       84.9008914568	      -19.9821982882	      309.5697236416	      -99.7739380479	        0.2029003516	       -0.0000795827	        0.4543649445	       72.0311499455	        7.7784253016	        8.1153535200	        0.0000000000	        0.0000000000	       -0.0000000000	        0.2076431971	        0.0000770316	        1.3583900146	       -0.0000000000	       -0.0000000000	       -0.0000000000	
        1.0450000000	       35.1906727417	      693.2317756611	      163.9941689018	        0.1988394961	        0.0000558755	       -0.3004071324	       77.3090177310	      -28.1111182272	       84.9583787997	      -20.5055855106	      298.5403184093	      -95.3962522781	        0.2029003516	       -0.0000795827	        0.4543649445	       69.8331790267	        7.7914925051	        7.8625018402	        0.0000000000	        0.0000000000	       -0.0000000000	        0.2076431971	        0.0000770316	        1.3583900146	       -0.0000000000	       -0.0000000000	       -0.0000000000	
        1.0460000000	       34.6242822487	      692.2362652208	      163.4572564906	        0.1988394961	        0.0000558755	       -0.3004071324	       77.4978967407	      -27.9755012576	       84.8787402641	      -21.0058580493	      287.8175626901	      -90.9510836673	        0.2029003516	       -0.0000795827	        0.4543649445	       67.6867427955	        7.7962837381	        7.6165603304	        0.0000000000	        0.0000000000	       -0.0000000000	        0.2076431971	        0.0000770316	        1.3583900146	        0.0000000000	       -0.0000000000	        0.0000000000	
        1.0470000000	       33.9787663575	      690.2399061097	      162.5666692800	        0.1988394961	        0.0000558755	       -0.3004071324	       77.5645652370	      -27.7729197773	       84.6766096420	      -21.4720939668	      277.4010529088	      -86.4729885266	        0.2029003516	       -0.0000795827	        0.4543649445	       65.5901325408	        7.7914250746	        7.3769955645	        0.0000000000	        0.0000000000	        0.0000000000	        0.2076431971	        0.0000770316	        1.3583900146	        0.0000000000	       -0.0000000000	        0.0000000000	
        1.0480000000	       33.2451079310	      687.3685151615	      161.3640778869	        0.1988394961	        0.0000558755	       -0.3004071324	       77.5227390599	      -27.5089245531	       84.3699697414	      -21.8934807675	      267.2769418246	      -81.9994496852	        0.2029003516	       -0.0000795827	        0.4543649445	       63.5388540757	        7.7757824381	        7.1427273112	        0.0000000000	        0.0000000000	        0.0000000000	        0.2076431971	        0.0000770316	        1.3583900146	        0.0000000000	       -0.0000000000	        0.0000000000	
        1.0490000000	       32.4154704300	      683.7668286822	      159.9070476662	        0.1988394961	        0.0000558755	       -0.3004071324	       77.3886142931	      -27.1913562324	       83.9788648262	      -22.2599508025	      257.4194778810	      -77.5703931045	        0.2029003516	       -0.0000795827	        0.4543649445	       61.5261605694	        7.7483137882	        6.9125305028	        0.0000000000	        0.0000000000	        0.0000000000	        0.2076431971	        0.0000770316	        1.3583900146	        0.0000000000	       -0.0000000000	        0.0000000000	
        1.0500000000	       31.4825484769	      679.5902742425	      158.2630234027	        0.1988394961	        0.0000558755	       -0.3004071324	       77.1797714395	      -26.8292100529	       83.5240683561	      -22.5622713342	      247.7930660503	      -73.2266851325	        0.2029003516	       -0.0000795827	        0.4543649445	       59.5434242614	        7.7078690999	        6.6851894283	        0.0000000000	        0.0000000000	        0.0000000000	        0.2076431971	        0.0000770316	        1.3583900146	        0.0000000000	       -0.0000000000	        0.0000000000	
